# xmcd
#
# Track frame offsets:
#	150
#	11307
#	28585
#	46977
#	68577
#	82672
#	92335
#	107022
#	124280
#	140272
#	152687
#	170025
#	181417
#	193812
#	207555
#	223615
#	237330
#	258830
#	272697
#	284755
#
# Disc length: 4067 seconds
# Revision: 8
# Processed by: cddbd v1.5.2PL0 Copyright (c) Steve Scherf et al.
# Submitted via: dBpowerAMP V12.0
#
DISCID=180fe114
DTITLE=Willie Nelson - Revolutions of Time...The Journey 1975-1993 - Sojourns
DYEAR=1995
DGENRE=Country
TTITLE0=Summertime (with Leon Russell)
TTITLE1=Faded Love (with Ray Price)
TTITLE2=Night Life (with Ray Price)
TTITLE3=Pancho and Lefty (with Merle Haggard)
TTITLE4=Old Friends (with Roger Miller and Ray Price)
TTITLE5=In the Jailhouse Now (with Webb Pierce)
TTITLE6=Everything's Beautiful (In It's Own Way) (with Dolly Parton)
TTITLE7=Take It to the Limit (with Waylon Jennings)
TTITLE8=To All the Girls I've Loved Before (with Julio Iglesias)
TTITLE9=How Do You Feel About Foolin' Around (with Kris Kristofferson)
TTITLE10=Seven Spanish Angels (with Ray Charles)
TTITLE11=Hello Walls (with Faron Young)
TTITLE12=I'm Movin' On (with Hank Snow)
TTITLE13=Highwayman (with Johnny Cash, Waylon Jennings, and Kris Kristofferson)
TTITLE14=Slow Movin' Outlaw (with Lacy J. Dalton)
TTITLE15=Are There Any More Real Cowboys (with Neil Young)
TTITLE16=They All Went to Mexico (with Carlos Santana)
TTITLE17=Half A Man (with George Jones)
TTITLE18=Texas On A Saturday Night (with Mel Tillis)
TTITLE19=Heartland (with Bob Dylan)
EXTD=
EXTT0=
EXTT1=
EXTT2=
EXTT3=
EXTT4=
EXTT5=
EXTT6=
EXTT7=
EXTT8=
EXTT9=
EXTT10=
EXTT11=
EXTT12=
EXTT13=
EXTT14=
EXTT15=
EXTT16=
EXTT17=
EXTT18=
EXTT19=
PLAYORDER=
